<svg width="64" height="64" viewBox="0 0 64 64" xmlns="http://www.w3.org/2000/svg">
  <!-- Background circle (optional) -->
  <circle cx="32" cy="32" r="30" fill="white" stroke="black" stroke-width="2"/>

  <!-- Folded Map -->
  <path d="M12 42 L24 30 L32 36 L40 30 L52 42 L32 54 Z" fill="white" stroke="black" stroke-width="2"/>

  <!-- Location Pin -->
  <path d="M32 14C38 14 42 18 42 24C42 32 32 44 32 44C32 44 22 32 22 24C22 18 26 14 32 14Z" fill="black"/>

  <!-- Star inside pin -->
  <polygon points="32,20 33.8,24.2 38.4,24.2 34.4,27 36,31.2 32,28.5 28,31.2 29.6,27 25.6,24.2 30.2,24.2" fill="white"/>
</svg>
